<?xml version="1.0" encoding="iso-8859-1"?>
<!-- Uploaded to: SVG Repo, www.svgrepo.com, Generator: SVG Repo Mixer Tools -->
<svg height="800px" width="800px" version="1.1" id="Layer_1" xmlns="http://www.w3.org/2000/svg" xmlns:xlink="http://www.w3.org/1999/xlink" 
	 viewBox="0 0 503.04 503.04" xml:space="preserve">
<g transform="translate(11 1)">
	<path style="fill:#ECF4F7;" d="M266.973,139.374l34.133,34.133l102.4-102.4l-34.133-34.133L266.973,139.374z M369.373,292.974
		l-34.133,34.133l-15.36-15.36l-87.04-87.04l34.133-34.133L369.373,292.974z M249.907,105.24l-34.133,34.133l-102.4-102.4
		L147.507,2.84L249.907,105.24z M215.773,190.574l-51.2,51.2l-51.2,51.2L79.24,258.84l102.4-102.4L215.773,190.574z"/>
	<path style="fill:#F2EDDA;" d="M343.773,378.307h-204.8c21.333-41.813,24.747-84.48,25.6-98.133v-38.4l51.2-51.2l25.6-25.6
		l25.6,25.6l-34.133,34.133l87.04,87.04l-1.707,1.707c5.12,21.333,14.507,39.253,14.507,39.253
		C336.093,361.24,339.507,369.774,343.773,378.307L343.773,378.307z"/>
	<polygon style="fill:#FFD0A1;" points="138.973,378.307 343.773,378.307 360.84,378.307 318.173,420.974 318.173,497.774 
		164.573,497.774 164.573,420.974 121.907,378.307 	"/>
	<polygon style="fill:#AAB1BA;" points="224.307,327.107 258.44,327.107 258.44,292.974 224.307,292.974 	"/>
</g>
<path style="fill:#51565F;" d="M499.84,503.04H4.907c-2.56,0-4.267-1.707-4.267-4.267s1.707-4.267,4.267-4.267h166.4V423.68
	l-16.213-16.213c-1.707-1.707-1.707-4.267,0-5.973c1.707-1.707,4.267-1.707,5.973,0l17.067,17.067
	c0.853,0.853,0.853,1.707,0.853,3.413v72.533h145.067v-72.533c0-0.853,0.853-2.56,0.853-3.413l17.067-17.067
	c1.707-1.707,4.267-1.707,5.973,0c1.707,1.707,1.707,4.267,0,5.973l-16.213,16.213v70.827h166.4c2.56,0,4.267,1.707,4.267,4.267
	S502.4,503.04,499.84,503.04z M252.373,451.84c-2.56,0-4.267-1.707-4.267-4.267v-17.067c0-2.56,1.707-4.267,4.267-4.267
	s4.267,1.707,4.267,4.267v17.067C256.64,450.133,254.933,451.84,252.373,451.84z M149.973,383.574L149.973,383.574h-42.667
	c-2.56,0-4.267-1.707-4.267-4.267c0-2.56,1.707-4.267,4.267-4.267h40.107c19.627-40.96,23.04-81.92,23.893-93.867
	c0-2.56,2.56-4.267,4.267-4.267c2.56,0,4.267,1.707,4.267,4.267c-0.853,11.947-4.267,52.053-23.04,93.013h191.147
	c-2.56-5.973-5.973-12.8-7.68-19.627c-0.853-2.56,0-4.267,2.56-5.12s4.267,0,5.12,2.56l9.387,23.04h40.107
	c2.56,0,4.267,1.707,4.267,4.267c0,2.56-1.707,4.267-4.267,4.267h-42.667l0,0H149.973L149.973,383.574z M346.24,332.374
	c-0.853,0-2.56,0-3.413-0.853l-102.4-102.4c-1.707-1.707-1.707-4.267,0-5.973l17.067-17.067c1.707-1.707,4.267-1.707,5.973,0
	c1.707,1.707,1.707,4.267,0,5.973l-13.653,13.653l96.427,96.427l28.16-28.16L252.373,171.947L127.787,296.534
	c-1.707,1.707-4.267,1.707-5.973,0L87.68,262.4c-1.707-1.707-1.707-4.267,0-5.973l102.4-102.4c1.707-1.707,4.267-1.707,5.973,0
	l17.067,17.067c1.707,1.707,1.707,4.267,0,5.973c-1.707,1.707-4.267,1.707-5.973,0l-13.653-13.653L97.067,259.84l28.16,28.16
	l122.027-122.027L122.667,41.387c-1.707-1.707-1.707-4.267,0-5.973L156.8,1.28c1.707-1.707,4.267-1.707,5.973,0l102.4,102.4
	c0.853,0.853,0.853,1.707,0.853,3.413c0,1.707,0,2.56-0.853,3.413l-17.067,17.067c-1.707,1.707-4.267,1.707-5.973,0
	c-1.707-1.707-1.707-4.267,0-5.973l13.653-13.653L159.36,11.52L131.2,39.68l122.027,122.027L377.813,37.12
	c1.707-1.707,4.267-1.707,5.973,0l34.133,34.133c1.707,1.707,1.707,4.267,0,5.973l-102.4,102.4c-1.707,1.707-4.267,1.707-5.973,0
	L292.48,162.56c-1.707-1.707-1.707-4.267,0-5.973c1.707-1.707,4.267-1.707,5.973,0l13.653,13.653l96.427-96.427l-28.16-28.16
	L258.347,167.68l124.587,124.587c1.707,1.707,1.707,4.267,0,5.973L348.8,332.373C348.8,332.374,347.093,332.374,346.24,332.374z
	 M269.44,332.374h-34.133c-2.56,0-4.267-1.707-4.267-4.267v-34.133c0-2.56,1.707-4.267,4.267-4.267h34.133
	c2.56,0,4.267,1.707,4.267,4.267v34.133C273.707,330.667,272,332.374,269.44,332.374z M239.573,323.84h25.6v-25.6h-25.6V323.84z"/>
</svg>